<svg width="82" height="82" viewBox="0 0 82 82" fill="none" xmlns="http://www.w3.org/2000/svg">
<g clip-path="url(#clip0_373_1103)">
<path d="M37.0759 53.1995C37.0759 52.0799 37.5207 51.0061 38.3124 50.2144C39.1041 49.4227 40.1779 48.9779 41.2975 48.9779C42.4172 48.9779 43.491 49.4227 44.2827 50.2144C45.0744 51.0061 45.5191 52.0799 45.5191 53.1995C45.5191 54.3191 45.0744 55.3929 44.2827 56.1846C43.491 56.9763 42.4172 57.4211 41.2975 57.4211C40.1779 57.4211 39.1041 56.9763 38.3124 56.1846C37.5207 55.3929 37.0759 54.3191 37.0759 53.1995Z" fill="var(--clr-accent-400)"/>
<path fill-rule="evenodd" clip-rule="evenodd" d="M32.5141 37.7175L27.0429 38.148C25.5624 38.2663 24.1641 38.8772 23.0714 39.8832C21.9787 40.8892 21.2545 42.2323 21.0145 43.698C19.9841 49.9904 19.9841 56.4085 21.0145 62.7009C21.2545 64.1666 21.9787 65.5097 23.0714 66.5157C24.1641 67.5217 25.5624 68.1326 27.0429 68.2509L31.2533 68.5886C37.9403 69.1233 44.6555 69.1233 51.3425 68.5886L55.5528 68.2509C57.0334 68.1326 58.4317 67.5217 59.5244 66.5157C60.6171 65.5097 61.3413 64.1666 61.5813 62.7009C62.6117 56.4085 62.6117 49.9904 61.5813 43.698C61.3413 42.2323 60.6171 40.8892 59.5244 39.8832C58.4317 38.8772 57.0334 38.2663 55.5528 38.148L51.3425 37.8103C45.0774 37.3106 38.7838 37.2796 32.5141 37.7175ZM51.0076 42.0206C44.5447 41.5048 38.0511 41.5048 31.5882 42.0206L27.3779 42.3584C26.8381 42.4015 26.3283 42.6243 25.9299 42.9911C25.5315 43.3579 25.2674 43.8475 25.1798 44.3819C24.2237 50.2214 24.2237 56.1775 25.1798 62.017C25.2668 62.5519 25.5306 63.0422 25.9291 63.4095C26.3276 63.7769 26.8376 64 27.3779 64.0433L31.591 64.3811C38.0529 64.8961 44.5429 64.8961 51.0048 64.3811L55.2151 64.0433C55.7558 64.0006 56.2666 63.7777 56.6656 63.4103C57.0646 63.043 57.3288 62.5523 57.416 62.017C58.3721 56.1775 58.3721 50.2214 57.416 44.3819C57.3288 43.8466 57.0646 43.3559 56.6656 42.9885C56.2666 42.6212 55.7558 42.3983 55.2151 42.3556L51.0076 42.0206Z" fill="var(--clr-accent-400)"/>
<path d="M35.3386 39.1128C24.9593 32.5081 25.9029 21.1854 33.3833 16.0522C38.8186 12.3224 51.1031 14.0795 53.2521 26.8477" stroke="var(--clr-accent-400)" stroke-width="4.34" stroke-linecap="round"/>
<path fill-rule="evenodd" clip-rule="evenodd" d="M40.7848 0.427124C32.0701 0.427124 25.2425 0.427124 19.9133 1.14423C14.4633 1.87643 10.1607 3.40876 6.7828 6.78292C3.40487 10.1609 1.8763 14.4635 1.1441 19.9172C0.427002 25.2427 0.427002 32.0702 0.427002 40.7849V41.2152C0.427002 49.9299 0.427002 56.7574 1.1441 62.0866C1.8763 67.5366 3.40864 71.8392 6.7828 75.2172C10.1607 78.5951 14.4633 80.1237 19.9171 80.8559C25.2425 81.573 32.0701 81.573 40.7848 81.573H41.215C49.9297 81.573 56.7573 81.573 62.0865 80.8559C67.5365 80.1237 71.8391 78.5913 75.217 75.2172C78.595 71.8392 80.1235 67.5366 80.8557 62.0829C81.5728 56.7574 81.5728 49.9299 81.5728 41.2152V40.7849C81.5728 32.0702 81.5728 25.2427 80.8557 19.9134C80.1235 14.4635 78.5912 10.1609 75.217 6.78292C71.8391 3.40499 67.5365 1.87643 62.0827 1.14423C56.7573 0.427124 49.9297 0.427124 41.215 0.427124H40.7848ZM10.7872 10.7874C12.9386 8.63606 15.8447 7.40189 20.6719 6.75273C25.5784 6.09601 32.0248 6.08846 40.9999 6.08846C49.975 6.08846 56.4214 6.09601 61.3279 6.75273C66.1551 7.40189 69.0651 8.63984 71.2164 10.7874C73.3639 12.9387 74.5981 15.8448 75.2472 20.6721C75.9039 25.5786 75.9115 32.0249 75.9115 41C75.9115 49.9751 75.9039 56.4215 75.2472 61.328C74.5981 66.1552 73.3601 69.0652 71.2126 71.2165C69.0613 73.364 66.1551 74.5982 61.3279 75.2474C56.4214 75.9041 49.975 75.9116 40.9999 75.9116C32.0248 75.9116 25.5784 75.9041 20.6719 75.2474C15.8447 74.5982 12.9348 73.3602 10.7835 71.2127C8.63594 69.0614 7.40177 66.1552 6.7526 61.328C6.09589 56.4215 6.08834 49.9751 6.08834 41C6.08834 32.0249 6.09589 25.5786 6.7526 20.6721C7.40177 15.8448 8.63972 12.9387 10.7872 10.7874Z" fill="var(--clr-accent-400)"/>
</g>
<defs>
<clipPath id="clip0_373_1103">
<rect width="82" height="82" fill="white"/>
</clipPath>
</defs>
</svg>
