<svg width="82" height="82" viewBox="0 0 82 82" fill="none" xmlns="http://www.w3.org/2000/svg">
    <g clip-path="url(#clip0_373_1109)">
        <path d="M40.3164 18.7916C41.1999 18.7916 42.0472 19.1426 42.672 19.7673C43.2967 20.3921 43.6477 21.2394 43.6477 22.1229V42.1104C43.6477 42.9939 43.2967 43.8412 42.672 44.4659C42.0472 45.0907 41.1999 45.4416 40.3164 45.4416C39.4329 45.4416 38.5856 45.0907 37.9609 44.4659C37.3361 43.8412 36.9852 42.9939 36.9852 42.1104V22.1229C36.9852 21.2394 37.3361 20.3921 37.9609 19.7673C38.5856 19.1426 39.4329 18.7916 40.3164 18.7916ZM40.3164 63.2083C41.4944 63.2083 42.6242 62.7403 43.4572 61.9074C44.2901 61.0744 44.7581 59.9446 44.7581 58.7666C44.7581 57.5886 44.2901 56.4589 43.4572 55.6259C42.6242 54.7929 41.4944 54.325 40.3164 54.325C39.1384 54.325 38.0087 54.7929 37.1757 55.6259C36.3427 56.4589 35.8748 57.5886 35.8748 58.7666C35.8748 59.9446 36.3427 61.0744 37.1757 61.9074C38.0087 62.7403 39.1384 63.2083 40.3164 63.2083Z" fill="var(--clr-accent-400)"/>
        <path d="M58.4841 6.04379L75.6644 22.9268C76.9525 24.1926 77.2551 24.5155 77.4651 24.8516C77.6879 25.2081 77.8531 25.5974 77.9548 26.0053C78.0507 26.3898 78.0727 26.8318 78.0885 28.6377L78.2987 52.7241C78.3145 54.53 78.3002 54.9723 78.211 55.3584C78.1164 55.768 77.958 56.1602 77.7415 56.5205C77.5374 56.8602 77.2404 57.1883 75.9746 58.4764L59.0916 75.6567C57.8258 76.9448 57.5029 77.2475 57.1668 77.4575C56.8103 77.6802 56.421 77.8455 56.0131 77.9472C55.6286 78.0431 55.1866 78.0651 53.3807 78.0809L29.2943 78.2911C27.4884 78.3068 27.0461 78.2925 26.66 78.2034C26.2504 78.1088 25.8582 77.9503 25.4979 77.7338C25.1582 77.5297 24.83 77.2328 23.542 75.967L6.36167 59.0839C5.07358 57.8181 4.77094 57.4953 4.56093 57.1592C4.33817 56.8027 4.1729 56.4133 4.0712 56.0054C3.97533 55.6209 3.9533 55.1789 3.93754 53.373L3.72734 29.2866C3.71158 27.4808 3.72589 27.0385 3.81504 26.6523C3.9096 26.2427 4.06805 25.8505 4.28456 25.4902C4.48868 25.1505 4.78563 24.8224 6.05143 23.5343L22.9345 6.35402C24.2003 5.06593 24.5231 4.7633 24.8592 4.55328C25.2157 4.33052 25.6051 4.16525 26.013 4.06355C26.3975 3.96768 26.8395 3.94565 28.6454 3.92989L52.7318 3.71969C54.5376 3.70393 54.9799 3.71824 55.3661 3.80739C55.7757 3.90196 56.1679 4.0604 56.5282 4.27691C56.8679 4.48103 57.196 4.77798 58.4841 6.04379Z" stroke="var(--clr-accent-400)" stroke-width="5.65458"/>
    </g>
    <defs>
        <clipPath id="clip0_373_1109">
            <rect width="82" height="82" fill="white"/>
        </clipPath>
    </defs>
</svg>
