<svg width="82" height="82" viewBox="0 0 82 82" fill="none" xmlns="http://www.w3.org/2000/svg">
<g clip-path="url(#clip0_373_1173)">
<path d="M47.6741 33.3721C47.6741 34.951 48.9555 36.2325 50.5345 36.2325H53.1661L45.4887 43.91C45.4001 43.9988 45.2949 44.0693 45.179 44.1173C45.0632 44.1654 44.939 44.1901 44.8136 44.1901C44.6882 44.1901 44.564 44.1654 44.4481 44.1173C44.3323 44.0693 44.2271 43.9988 44.1385 43.91L38.0896 37.8611C36.838 36.6104 35.1411 35.9079 33.3717 35.9079C31.6024 35.9079 29.9054 36.6104 28.6539 37.8611L19.9085 46.6065C19.6274 46.8684 19.402 47.1842 19.2457 47.535C19.0893 47.8859 19.0053 48.2647 18.9985 48.6488C18.9917 49.0328 19.0624 49.4143 19.2062 49.7705C19.3501 50.1267 19.5642 50.4503 19.8359 50.7219C20.1075 50.9935 20.431 51.2076 20.7872 51.3515C21.1434 51.4954 21.5249 51.566 21.909 51.5592C22.293 51.5525 22.6718 51.4684 23.0227 51.3121C23.3736 51.1557 23.6894 50.9303 23.9513 50.6493L32.6967 41.9039C32.7852 41.8151 32.8904 41.7446 33.0063 41.6966C33.1221 41.6485 33.2463 41.6238 33.3717 41.6238C33.4971 41.6238 33.6213 41.6485 33.7372 41.6966C33.853 41.7446 33.9582 41.8151 34.0468 41.9039L40.0957 47.9528C41.3473 49.2035 43.0442 49.906 44.8136 49.906C46.5829 49.906 48.2799 49.2035 49.5314 47.9528L57.2089 40.2791V42.9069C57.2089 43.6656 57.5103 44.3932 58.0467 44.9296C58.5832 45.466 59.3108 45.7674 60.0694 45.7674C60.828 45.7674 61.5556 45.466 62.0921 44.9296C62.6285 44.3932 62.9299 43.6656 62.9299 42.9069V33.3721C62.9299 32.6134 62.6285 31.8859 62.0921 31.3494C61.5556 30.813 60.828 30.5116 60.0694 30.5116H50.5345C49.7759 30.5116 49.0483 30.813 48.5119 31.3494C47.9754 31.8859 47.6741 32.6134 47.6741 33.3721Z" fill="var(--clr-accent-400)"/>
<path fill-rule="evenodd" clip-rule="evenodd" d="M40.7826 0C31.9762 0 25.0767 2.27329e-07 19.6914 0.724651C14.1841 1.46456 9.83619 3.01302 6.4227 6.4227C3.00921 9.83619 1.46456 14.1841 0.724651 19.6953C2.27329e-07 25.0767 0 31.9762 0 40.7826V41.2174C0 50.0238 2.27329e-07 56.9233 0.724651 62.3086C1.46456 67.8159 3.01302 72.1638 6.4227 75.5773C9.83619 78.9908 14.1841 80.5354 19.6953 81.2753C25.0767 82 31.9762 82 40.7826 82H41.2174C50.0238 82 56.9233 82 62.3086 81.2753C67.8159 80.5354 72.1638 78.987 75.5773 75.5773C78.9908 72.1638 80.5354 67.8159 81.2753 62.3047C82 56.9233 82 50.0238 82 41.2174V40.7826C82 31.9762 82 25.0767 81.2753 19.6914C80.5354 14.1841 78.987 9.83619 75.5773 6.4227C72.1638 3.00921 67.8159 1.46456 62.3047 0.724651C56.9233 2.27329e-07 50.0238 0 41.2174 0H40.7826ZM10.4693 10.4693C12.6433 8.29535 15.58 7.04819 20.458 6.39219C25.4162 5.72856 31.9304 5.72093 41 5.72093C50.0696 5.72093 56.5838 5.72856 61.542 6.39219C66.42 7.04819 69.3606 8.29916 71.5345 10.4693C73.7047 12.6433 74.9518 15.58 75.6078 20.458C76.2714 25.4162 76.2791 31.9304 76.2791 41C76.2791 50.0696 76.2714 56.5838 75.6078 61.542C74.9518 66.42 73.7008 69.3606 71.5307 71.5345C69.3567 73.7047 66.42 74.9518 61.542 75.6078C56.5838 76.2714 50.0696 76.2791 41 76.2791C31.9304 76.2791 25.4162 76.2714 20.458 75.6078C15.58 74.9518 12.6394 73.7008 10.4655 71.5307C8.29535 69.3567 7.04819 66.42 6.39219 61.542C5.72856 56.5838 5.72093 50.0696 5.72093 41C5.72093 31.9304 5.72856 25.4162 6.39219 20.458C7.04819 15.58 8.29916 12.6433 10.4693 10.4693Z" fill="var(--clr-accent-400)"/>
</g>
<defs>
<clipPath id="clip0_373_1173">
<rect width="82" height="82" fill="white"/>
</clipPath>
</defs>
</svg>
