<svg width="53" height="52" viewBox="0 0 53 52" fill="none" xmlns="http://www.w3.org/2000/svg">
<g clip-path="url(#clip0_348_1703)">
<path fill-rule="evenodd" clip-rule="evenodd" d="M26.3636 0.270844C20.8372 0.270844 16.5075 0.270844 13.128 0.725592C9.67191 1.18991 6.94342 2.16164 4.80132 4.30135C2.65921 6.44345 1.68988 9.17194 1.22556 12.6304C0.770813 16.0075 0.770813 20.3372 0.770813 25.8636V26.1364C0.770813 31.6628 0.770813 35.9925 1.22556 39.372C1.68988 42.8281 2.66161 45.5566 4.80132 47.6987C6.94342 49.8408 9.67191 50.8101 13.1304 51.2744C16.5075 51.7292 20.8372 51.7292 26.3636 51.7292H26.6364C32.1628 51.7292 36.4925 51.7292 39.872 51.2744C43.328 50.8101 46.0565 49.8384 48.1986 47.6987C50.3407 45.5566 51.3101 42.8281 51.7744 39.3696C52.2291 35.9925 52.2291 31.6628 52.2291 26.1364V25.8636C52.2291 20.3372 52.2291 16.0075 51.7744 12.628C51.3101 9.17194 50.3384 6.44345 48.1986 4.30135C46.0565 2.15924 43.328 1.18991 39.8696 0.725592C36.4925 0.270844 32.1628 0.270844 26.6364 0.270844H26.3636ZM7.34073 6.84076C8.70497 5.47651 10.5479 4.69387 13.6091 4.2822C16.7205 3.86575 20.8084 3.86096 26.5 3.86096C32.1915 3.86096 36.2795 3.86575 39.3909 4.2822C42.4521 4.69387 44.2974 5.47891 45.6616 6.84076C47.0235 8.205 47.8061 10.0479 48.2178 13.1091C48.6342 16.2205 48.639 20.3085 48.639 26C48.639 31.6915 48.6342 35.7795 48.2178 38.8909C47.8061 41.9521 47.0211 43.7974 45.6592 45.1617C44.295 46.5235 42.4521 47.3062 39.3909 47.7178C36.2795 48.1343 32.1915 48.1391 26.5 48.1391C20.8084 48.1391 16.7205 48.1343 13.6091 47.7178C10.5479 47.3062 8.70258 46.5211 7.33833 45.1593C5.97648 43.795 5.19384 41.9521 4.78217 38.8909C4.36572 35.7795 4.36093 31.6915 4.36093 26C4.36093 20.3085 4.36572 16.2205 4.78217 13.1091C5.19384 10.0479 5.97887 8.205 7.34073 6.84076Z" fill="var(--clr-accent-500)"/>
<path d="M25.9918 33.3C25.0718 33.3 24.2585 33.1167 23.5518 32.75C22.8451 32.3767 22.2918 31.86 21.8918 31.2C21.4918 30.54 21.2918 29.77 21.2918 28.89C21.2918 28.03 21.4951 27.2533 21.9018 26.56C22.3151 25.8667 22.9351 25.3333 23.7618 24.96L23.7318 25.61C23.0585 25.2833 22.5418 24.8233 22.1818 24.23C21.8218 23.63 21.6418 22.9667 21.6418 22.24C21.6418 21.4267 21.8285 20.7267 22.2018 20.14C22.5751 19.5533 23.0885 19.1 23.7418 18.78C24.3951 18.46 25.1451 18.3 25.9918 18.3C26.8385 18.3 27.5885 18.46 28.2418 18.78C28.8951 19.1 29.4085 19.5533 29.7818 20.14C30.1551 20.7267 30.3418 21.4267 30.3418 22.24C30.3418 22.9667 30.1718 23.6267 29.8318 24.22C29.4918 24.8067 28.9685 25.27 28.2618 25.61L28.2218 24.97C29.0485 25.33 29.6685 25.86 30.0818 26.56C30.5018 27.2533 30.7118 28.03 30.7118 28.89C30.7118 29.77 30.5085 30.54 30.1018 31.2C29.7018 31.86 29.1451 32.3767 28.4318 32.75C27.7251 33.1167 26.9118 33.3 25.9918 33.3ZM25.9918 31.6C26.8318 31.6 27.5118 31.37 28.0318 30.91C28.5585 30.4433 28.8218 29.77 28.8218 28.89C28.8218 28.0033 28.5618 27.33 28.0418 26.87C27.5285 26.4033 26.8451 26.17 25.9918 26.17C25.1451 26.17 24.4618 26.4033 23.9418 26.87C23.4285 27.33 23.1718 28.0033 23.1718 28.89C23.1718 29.77 23.4318 30.4433 23.9518 30.91C24.4718 31.37 25.1518 31.6 25.9918 31.6ZM25.9918 24.46C26.7251 24.46 27.3185 24.2767 27.7718 23.91C28.2251 23.5367 28.4518 22.98 28.4518 22.24C28.4518 21.5 28.2251 20.9467 27.7718 20.58C27.3185 20.2067 26.7251 20.02 25.9918 20.02C25.2651 20.02 24.6718 20.2067 24.2118 20.58C23.7585 20.9467 23.5318 21.5 23.5318 22.24C23.5318 22.98 23.7585 23.5367 24.2118 23.91C24.6718 24.2767 25.2651 24.46 25.9918 24.46Z" fill="var(--clr-accent-500)"/>
</g>
<defs>
<clipPath id="clip0_348_1703">
<rect width="52" height="52" fill="white" transform="translate(0.5)"/>
</clipPath>
</defs>
</svg>
