<svg width="53" height="52" viewBox="0 0 53 52" fill="none" xmlns="http://www.w3.org/2000/svg">
<g clip-path="url(#clip0_348_1596)">
<path fill-rule="evenodd" clip-rule="evenodd" d="M26.3636 0.270874C20.8372 0.270874 16.5075 0.270874 13.128 0.725622C9.67191 1.18994 6.94342 2.16167 4.80132 4.30138C2.65921 6.44348 1.68988 9.17197 1.22556 12.6304C0.770813 16.0076 0.770813 20.3372 0.770813 25.8636V26.1365C0.770813 31.6628 0.770813 35.9925 1.22556 39.372C1.68988 42.8281 2.66161 45.5566 4.80132 47.6987C6.94342 49.8408 9.67191 50.8101 13.1304 51.2745C16.5075 51.7292 20.8372 51.7292 26.3636 51.7292H26.6364C32.1628 51.7292 36.4925 51.7292 39.872 51.2745C43.328 50.8101 46.0565 49.8384 48.1986 47.6987C50.3407 45.5566 51.3101 42.8281 51.7744 39.3696C52.2291 35.9925 52.2291 31.6628 52.2291 26.1365V25.8636C52.2291 20.3372 52.2291 16.0076 51.7744 12.6281C51.3101 9.17197 50.3384 6.44348 48.1986 4.30138C46.0565 2.15928 43.328 1.18994 39.8696 0.725622C36.4925 0.270874 32.1628 0.270874 26.6364 0.270874H26.3636ZM7.34073 6.84079C8.70497 5.47654 10.5479 4.6939 13.6091 4.28223C16.7205 3.86578 20.8084 3.86099 26.5 3.86099C32.1915 3.86099 36.2795 3.86578 39.3909 4.28223C42.4521 4.6939 44.2974 5.47894 45.6616 6.84079C47.0235 8.20503 47.8061 10.048 48.2178 13.1091C48.6342 16.2206 48.639 20.3085 48.639 26C48.639 31.6916 48.6342 35.7795 48.2178 38.8909C47.8061 41.9521 47.0211 43.7974 45.6592 45.1617C44.295 46.5235 42.4521 47.3062 39.3909 47.7178C36.2795 48.1343 32.1915 48.1391 26.5 48.1391C20.8084 48.1391 16.7205 48.1343 13.6091 47.7178C10.5479 47.3062 8.70258 46.5211 7.33833 45.1593C5.97648 43.795 5.19384 41.9521 4.78217 38.8909C4.36572 35.7795 4.36093 31.6916 4.36093 26C4.36093 20.3085 4.36572 16.2206 4.78217 13.1091C5.19384 10.048 5.97887 8.20503 7.34073 6.84079Z" fill="var(--clr-accent-500)"/>
<path d="M25.725 33.28C25.0117 33.28 24.3483 33.15 23.735 32.89C23.1217 32.6233 22.5917 32.25 22.145 31.77C21.705 31.2833 21.3817 30.7067 21.175 30.04L22.885 29.55C23.105 30.2167 23.4717 30.7233 23.985 31.07C24.4983 31.4167 25.075 31.5867 25.715 31.58C26.3017 31.5667 26.8083 31.4333 27.235 31.18C27.6683 30.92 28.0017 30.5667 28.235 30.12C28.475 29.6733 28.595 29.1567 28.595 28.57C28.595 27.6767 28.3283 26.9533 27.795 26.4C27.2617 25.84 26.5617 25.56 25.695 25.56C25.455 25.56 25.2017 25.5933 24.935 25.66C24.675 25.7267 24.4317 25.82 24.205 25.94L23.345 24.53L28.685 19.7L28.915 20.3H21.745V18.6H30.235V20.31L25.685 24.67L25.665 24.04C26.6183 23.9733 27.4517 24.13 28.165 24.51C28.8783 24.89 29.4317 25.4333 29.825 26.14C30.225 26.8467 30.425 27.6567 30.425 28.57C30.425 29.49 30.2183 30.3033 29.805 31.01C29.3917 31.7167 28.8317 32.2733 28.125 32.68C27.4183 33.08 26.6183 33.28 25.725 33.28Z" fill="var(--clr-accent-500)"/>
</g>
<defs>
<clipPath id="clip0_348_1596">
<rect width="52" height="52" fill="white" transform="translate(0.5)"/>
</clipPath>
</defs>
</svg>
