<svg width="53" height="52" viewBox="0 0 53 52" fill="none" xmlns="http://www.w3.org/2000/svg">
<g clip-path="url(#clip0_348_1645)">
<path fill-rule="evenodd" clip-rule="evenodd" d="M26.3636 0.270874C20.8372 0.270874 16.5075 0.270874 13.128 0.725622C9.67192 1.18994 6.94343 2.16167 4.80133 4.30138C2.65923 6.44348 1.6899 9.17197 1.22558 12.6304C0.770828 16.0076 0.770828 20.3372 0.770828 25.8636V26.1365C0.770828 31.6628 0.770828 35.9925 1.22558 39.372C1.6899 42.8281 2.66162 45.5566 4.80133 47.6987C6.94343 49.8408 9.67192 50.8101 13.1304 51.2745C16.5075 51.7292 20.8372 51.7292 26.3636 51.7292H26.6364C32.1628 51.7292 36.4925 51.7292 39.872 51.2745C43.3281 50.8101 46.0566 49.8384 48.1987 47.6987C50.3408 45.5566 51.3101 42.8281 51.7744 39.3696C52.2292 35.9925 52.2292 31.6628 52.2292 26.1365V25.8636C52.2292 20.3372 52.2292 16.0076 51.7744 12.6281C51.3101 9.17197 50.3384 6.44348 48.1987 4.30138C46.0566 2.15928 43.3281 1.18994 39.8696 0.725622C36.4925 0.270874 32.1628 0.270874 26.6364 0.270874H26.3636ZM7.34074 6.84079C8.70498 5.47654 10.5479 4.6939 13.6091 4.28223C16.7205 3.86578 20.8085 3.86099 26.5 3.86099C32.1915 3.86099 36.2795 3.86578 39.3909 4.28223C42.4521 4.6939 44.2974 5.47894 45.6616 6.84079C47.0235 8.20503 47.8061 10.048 48.2178 13.1091C48.6343 16.2206 48.639 20.3085 48.639 26C48.639 31.6916 48.6343 35.7795 48.2178 38.8909C47.8061 41.9521 47.0211 43.7974 45.6592 45.1617C44.295 46.5235 42.4521 47.3062 39.3909 47.7178C36.2795 48.1343 32.1915 48.1391 26.5 48.1391C20.8085 48.1391 16.7205 48.1343 13.6091 47.7178C10.5479 47.3062 8.70259 46.5211 7.33835 45.1593C5.9765 43.795 5.19385 41.9521 4.78219 38.8909C4.36573 35.7795 4.36094 31.6916 4.36094 26C4.36094 20.3085 4.36573 16.2206 4.78219 13.1091C5.19385 10.048 5.97889 8.20503 7.34074 6.84079Z" fill="var(--clr-accent-500)"/>
<path d="M27.663 33V30.35H21.043V28.66L25.793 18.6H27.813L23.063 28.66H27.663V24.61H29.463V28.66H30.963V30.35H29.463V33H27.663Z" fill="var(--clr-accent-500)"/>
</g>
<defs>
<clipPath id="clip0_348_1645">
<rect width="52" height="52" fill="white" transform="translate(0.5)"/>
</clipPath>
</defs>
</svg>
