<svg width="53" height="52" viewBox="0 0 53 52" fill="none" xmlns="http://www.w3.org/2000/svg">
<g clip-path="url(#clip0_348_1651)">
<path fill-rule="evenodd" clip-rule="evenodd" d="M26.3636 0.270813C20.8372 0.270813 16.5075 0.270813 13.128 0.725561C9.67192 1.18988 6.94343 2.16161 4.80133 4.30132C2.65923 6.44342 1.6899 9.17191 1.22558 12.6304C0.770828 16.0075 0.770828 20.3372 0.770828 25.8636V26.1364C0.770828 31.6628 0.770828 35.9925 1.22558 39.372C1.6899 42.828 2.66162 45.5565 4.80133 47.6986C6.94343 49.8407 9.67192 50.8101 13.1304 51.2744C16.5075 51.7291 20.8372 51.7291 26.3636 51.7291H26.6364C32.1628 51.7291 36.4925 51.7291 39.872 51.2744C43.3281 50.8101 46.0566 49.8384 48.1987 47.6986C50.3408 45.5565 51.3101 42.828 51.7744 39.3696C52.2292 35.9925 52.2292 31.6628 52.2292 26.1364V25.8636C52.2292 20.3372 52.2292 16.0075 51.7744 12.628C51.3101 9.17191 50.3384 6.44342 48.1987 4.30132C46.0566 2.15921 43.3281 1.18988 39.8696 0.725561C36.4925 0.270813 32.1628 0.270813 26.6364 0.270813H26.3636ZM7.34074 6.84073C8.70498 5.47648 10.5479 4.69384 13.6091 4.28217C16.7205 3.86572 20.8085 3.86093 26.5 3.86093C32.1915 3.86093 36.2795 3.86572 39.3909 4.28217C42.4521 4.69384 44.2974 5.47887 45.6616 6.84073C47.0235 8.20497 47.8061 10.0479 48.2178 13.1091C48.6343 16.2205 48.639 20.3084 48.639 26C48.639 31.6915 48.6343 35.7795 48.2178 38.8909C47.8061 41.9521 47.0211 43.7974 45.6592 45.1616C44.295 46.5235 42.4521 47.3061 39.3909 47.7178C36.2795 48.1342 32.1915 48.139 26.5 48.139C20.8085 48.139 16.7205 48.1342 13.6091 47.7178C10.5479 47.3061 8.70259 46.5211 7.33835 45.1592C5.9765 43.795 5.19385 41.9521 4.78219 38.8909C4.36573 35.7795 4.36094 31.6915 4.36094 26C4.36094 20.3084 4.36573 16.2205 4.78219 13.1091C5.19385 10.0479 5.97889 8.20497 7.34074 6.84073Z" fill="var(--clr-accent-500)"/>
<path d="M26.5991 33.3C25.6857 33.3 24.8557 33.08 24.1091 32.64C23.3691 32.2 22.7791 31.6 22.3391 30.84C21.9057 30.0733 21.6891 29.21 21.6891 28.25V23.46C21.6891 22.4533 21.9057 21.5633 22.3391 20.79C22.7791 20.01 23.3791 19.4033 24.1391 18.97C24.9057 18.53 25.7791 18.31 26.7591 18.31C27.5524 18.31 28.2891 18.4733 28.9691 18.8C29.6557 19.12 30.2324 19.5833 30.6991 20.19L29.3691 21.37C29.0824 20.95 28.7091 20.6167 28.2491 20.37C27.7891 20.1233 27.2924 20 26.7591 20C26.1257 20 25.5624 20.1533 25.0691 20.46C24.5824 20.76 24.1991 21.16 23.9191 21.66C23.6391 22.1533 23.4991 22.6867 23.4991 23.26V26.15L23.1091 25.71C23.5291 25.11 24.0624 24.63 24.7091 24.27C25.3557 23.91 26.0557 23.73 26.8091 23.73C27.7024 23.73 28.5024 23.94 29.2091 24.36C29.9224 24.78 30.4824 25.35 30.8891 26.07C31.3024 26.7833 31.5091 27.5867 31.5091 28.48C31.5091 29.3733 31.2857 30.1833 30.8391 30.91C30.3924 31.6367 29.7957 32.2167 29.0491 32.65C28.3091 33.0833 27.4924 33.3 26.5991 33.3ZM26.5991 31.58C27.1724 31.58 27.6957 31.4433 28.1691 31.17C28.6424 30.89 29.0157 30.5167 29.2891 30.05C29.5691 29.5767 29.7091 29.0533 29.7091 28.48C29.7091 27.9067 29.5691 27.3833 29.2891 26.91C29.0157 26.4367 28.6424 26.0633 28.1691 25.79C27.7024 25.51 27.1824 25.37 26.6091 25.37C26.0357 25.37 25.5124 25.51 25.0391 25.79C24.5724 26.0633 24.1991 26.4367 23.9191 26.91C23.6391 27.3833 23.4991 27.9067 23.4991 28.48C23.4991 29.0467 23.6357 29.5667 23.9091 30.04C24.1891 30.5067 24.5624 30.88 25.0291 31.16C25.5024 31.44 26.0257 31.58 26.5991 31.58Z" fill="var(--clr-accent-500)"/>
</g>
<defs>
<clipPath id="clip0_348_1651">
<rect width="52" height="52" fill="white" transform="translate(0.5)"/>
</clipPath>
</defs>
</svg>
