<svg width="53" height="52" viewBox="0 0 53 52" fill="none" xmlns="http://www.w3.org/2000/svg">
<g clip-path="url(#clip0_348_1700)">
<path fill-rule="evenodd" clip-rule="evenodd" d="M26.3636 0.270813C20.8372 0.270813 16.5075 0.270813 13.128 0.725561C9.67191 1.18988 6.94342 2.16161 4.80132 4.30132C2.65921 6.44342 1.68988 9.17191 1.22556 12.6304C0.770813 16.0075 0.770813 20.3372 0.770813 25.8636V26.1364C0.770813 31.6628 0.770813 35.9925 1.22556 39.372C1.68988 42.828 2.66161 45.5565 4.80132 47.6986C6.94342 49.8407 9.67191 50.8101 13.1304 51.2744C16.5075 51.7291 20.8372 51.7291 26.3636 51.7291H26.6364C32.1628 51.7291 36.4925 51.7291 39.872 51.2744C43.328 50.8101 46.0565 49.8384 48.1986 47.6986C50.3407 45.5565 51.3101 42.828 51.7744 39.3696C52.2291 35.9925 52.2291 31.6628 52.2291 26.1364V25.8636C52.2291 20.3372 52.2291 16.0075 51.7744 12.628C51.3101 9.17191 50.3384 6.44342 48.1986 4.30132C46.0565 2.15921 43.328 1.18988 39.8696 0.725561C36.4925 0.270813 32.1628 0.270813 26.6364 0.270813H26.3636ZM7.34073 6.84073C8.70497 5.47648 10.5479 4.69384 13.6091 4.28217C16.7205 3.86572 20.8084 3.86093 26.5 3.86093C32.1915 3.86093 36.2795 3.86572 39.3909 4.28217C42.4521 4.69384 44.2974 5.47887 45.6616 6.84073C47.0235 8.20497 47.8061 10.0479 48.2178 13.1091C48.6342 16.2205 48.639 20.3084 48.639 26C48.639 31.6915 48.6342 35.7795 48.2178 38.8909C47.8061 41.9521 47.0211 43.7974 45.6592 45.1616C44.295 46.5235 42.4521 47.3061 39.3909 47.7178C36.2795 48.1342 32.1915 48.139 26.5 48.139C20.8084 48.139 16.7205 48.1342 13.6091 47.7178C10.5479 47.3061 8.70258 46.5211 7.33833 45.1592C5.97648 43.795 5.19384 41.9521 4.78217 38.8909C4.36572 35.7795 4.36093 31.6915 4.36093 26C4.36093 20.3084 4.36572 16.2205 4.78217 13.1091C5.19384 10.0479 5.97887 8.20497 7.34073 6.84073Z" fill="var(--clr-accent-500)"/>
<path d="M23.533 33L28.713 20.31H22.173V18.6H30.623V20.31L25.453 33H23.533Z" fill="var(--clr-accent-500)"/>
</g>
<defs>
<clipPath id="clip0_348_1700">
<rect width="52" height="52" fill="white" transform="translate(0.5)"/>
</clipPath>
</defs>
</svg>
