<svg width="53" height="52" viewBox="0 0 53 52" fill="none" xmlns="http://www.w3.org/2000/svg">
<g clip-path="url(#clip0_348_1648)">
<path fill-rule="evenodd" clip-rule="evenodd" d="M26.3636 0.270813C20.8372 0.270813 16.5075 0.270813 13.128 0.725561C9.67192 1.18988 6.94343 2.16161 4.80133 4.30132C2.65923 6.44342 1.6899 9.17191 1.22558 12.6304C0.770828 16.0075 0.770828 20.3372 0.770828 25.8636V26.1364C0.770828 31.6628 0.770828 35.9925 1.22558 39.372C1.6899 42.828 2.66162 45.5565 4.80133 47.6986C6.94343 49.8407 9.67192 50.8101 13.1304 51.2744C16.5075 51.7291 20.8372 51.7291 26.3636 51.7291H26.6364C32.1628 51.7291 36.4925 51.7291 39.872 51.2744C43.3281 50.8101 46.0566 49.8384 48.1987 47.6986C50.3408 45.5565 51.3101 42.828 51.7744 39.3696C52.2292 35.9925 52.2292 31.6628 52.2292 26.1364V25.8636C52.2292 20.3372 52.2292 16.0075 51.7744 12.628C51.3101 9.17191 50.3384 6.44342 48.1987 4.30132C46.0566 2.15921 43.3281 1.18988 39.8696 0.725561C36.4925 0.270813 32.1628 0.270813 26.6364 0.270813H26.3636ZM7.34074 6.84073C8.70498 5.47648 10.5479 4.69384 13.6091 4.28217C16.7205 3.86572 20.8085 3.86093 26.5 3.86093C32.1915 3.86093 36.2795 3.86572 39.3909 4.28217C42.4521 4.69384 44.2974 5.47887 45.6616 6.84073C47.0235 8.20497 47.8061 10.0479 48.2178 13.1091C48.6343 16.2205 48.639 20.3084 48.639 26C48.639 31.6915 48.6343 35.7795 48.2178 38.8909C47.8061 41.9521 47.0211 43.7974 45.6592 45.1616C44.295 46.5235 42.4521 47.3061 39.3909 47.7178C36.2795 48.1342 32.1915 48.139 26.5 48.139C20.8085 48.139 16.7205 48.1342 13.6091 47.7178C10.5479 47.3061 8.70259 46.5211 7.33835 45.1592C5.9765 43.795 5.19385 41.9521 4.78219 38.8909C4.36573 35.7795 4.36094 31.6915 4.36094 26C4.36094 20.3084 4.36573 16.2205 4.78219 13.1091C5.19385 10.0479 5.97889 8.20497 7.34074 6.84073Z" fill="var(--clr-accent-500)"/>
<path d="M25.8592 33.3C25.1192 33.3 24.4292 33.1467 23.7892 32.84C23.1559 32.5333 22.6126 32.1133 22.1592 31.58C21.7126 31.04 21.3926 30.42 21.1992 29.72L22.9092 29.26C23.0292 29.7333 23.2426 30.1433 23.5492 30.49C23.8559 30.83 24.2126 31.0967 24.6192 31.29C25.0326 31.4767 25.4626 31.57 25.9092 31.57C26.4959 31.57 27.0226 31.43 27.4892 31.15C27.9626 30.8633 28.3359 30.4867 28.6092 30.02C28.8826 29.5467 29.0192 29.03 29.0192 28.47C29.0192 27.89 28.8759 27.3667 28.5892 26.9C28.3092 26.4267 27.9326 26.0533 27.4592 25.78C26.9859 25.5067 26.4692 25.37 25.9092 25.37C25.2759 25.37 24.7326 25.5033 24.2792 25.77C23.8326 26.03 23.4792 26.35 23.2192 26.73L21.6392 26.13L22.0792 18.6H29.8092V20.29H22.9392L23.7292 19.55L23.3592 25.58L22.9692 25.07C23.3692 24.6433 23.8459 24.3133 24.3992 24.08C24.9592 23.8467 25.5292 23.73 26.1092 23.73C27.0026 23.73 27.8026 23.94 28.5092 24.36C29.2159 24.7733 29.7759 25.34 30.1892 26.06C30.6026 26.7733 30.8092 27.5767 30.8092 28.47C30.8092 29.3567 30.5826 30.1667 30.1292 30.9C29.6759 31.6267 29.0726 32.21 28.3192 32.65C27.5726 33.0833 26.7526 33.3 25.8592 33.3Z" fill="var(--clr-accent-500)"/>
</g>
<defs>
<clipPath id="clip0_348_1648">
<rect width="52" height="52" fill="white" transform="translate(0.5)"/>
</clipPath>
</defs>
</svg>
