<svg width="53" height="52" viewBox="0 0 53 52" fill="none" xmlns="http://www.w3.org/2000/svg">
<g clip-path="url(#clip0_348_1706)">
<path fill-rule="evenodd" clip-rule="evenodd" d="M26.3636 0.270844C20.8372 0.270844 16.5075 0.270844 13.128 0.725592C9.67191 1.18991 6.94342 2.16164 4.80132 4.30135C2.65921 6.44345 1.68988 9.17194 1.22556 12.6304C0.770813 16.0075 0.770813 20.3372 0.770813 25.8636V26.1364C0.770813 31.6628 0.770813 35.9925 1.22556 39.372C1.68988 42.8281 2.66161 45.5566 4.80132 47.6987C6.94342 49.8408 9.67191 50.8101 13.1304 51.2744C16.5075 51.7292 20.8372 51.7292 26.3636 51.7292H26.6364C32.1628 51.7292 36.4925 51.7292 39.872 51.2744C43.328 50.8101 46.0565 49.8384 48.1986 47.6987C50.3407 45.5566 51.3101 42.8281 51.7744 39.3696C52.2291 35.9925 52.2291 31.6628 52.2291 26.1364V25.8636C52.2291 20.3372 52.2291 16.0075 51.7744 12.628C51.3101 9.17194 50.3384 6.44345 48.1986 4.30135C46.0565 2.15924 43.328 1.18991 39.8696 0.725592C36.4925 0.270844 32.1628 0.270844 26.6364 0.270844H26.3636ZM7.34073 6.84076C8.70497 5.47651 10.5479 4.69387 13.6091 4.2822C16.7205 3.86575 20.8084 3.86096 26.5 3.86096C32.1915 3.86096 36.2795 3.86575 39.3909 4.2822C42.4521 4.69387 44.2974 5.47891 45.6616 6.84076C47.0235 8.205 47.8061 10.0479 48.2178 13.1091C48.6342 16.2205 48.639 20.3085 48.639 26C48.639 31.6915 48.6342 35.7795 48.2178 38.8909C47.8061 41.9521 47.0211 43.7974 45.6592 45.1617C44.295 46.5235 42.4521 47.3062 39.3909 47.7178C36.2795 48.1343 32.1915 48.1391 26.5 48.1391C20.8084 48.1391 16.7205 48.1343 13.6091 47.7178C10.5479 47.3062 8.70258 46.5211 7.33833 45.1593C5.97648 43.795 5.19384 41.9521 4.78217 38.8909C4.36572 35.7795 4.36093 31.6915 4.36093 26C4.36093 20.3085 4.36572 16.2205 4.78217 13.1091C5.19384 10.0479 5.97887 8.205 7.34073 6.84076Z" fill="var(--clr-accent-500)"/>
<path d="M26.3991 18.31C27.3191 18.31 28.1491 18.53 28.8891 18.97C29.6291 19.41 30.2157 20.01 30.6491 20.77C31.0891 21.53 31.3091 22.3933 31.3091 23.36V28.15C31.3091 29.1567 31.0924 30.0467 30.6591 30.82C30.2257 31.5933 29.6257 32.2 28.8591 32.64C28.0991 33.08 27.2257 33.3 26.2391 33.3C25.4524 33.3 24.7157 33.1367 24.0291 32.81C23.3491 32.4833 22.7724 32.02 22.2991 31.42L23.6291 30.24C23.9224 30.6533 24.2991 30.9867 24.7591 31.24C25.2191 31.4867 25.7124 31.61 26.2391 31.61C26.8791 31.61 27.4424 31.4567 27.9291 31.15C28.4224 30.8433 28.8057 30.4433 29.0791 29.95C29.3591 29.4567 29.4991 28.9233 29.4991 28.35V25.46L29.8891 25.9C29.4757 26.5 28.9457 26.98 28.2991 27.34C27.6524 27.7 26.9491 27.88 26.1891 27.88C25.2957 27.88 24.4957 27.67 23.7891 27.25C23.0824 26.83 22.5224 26.2633 22.1091 25.55C21.6957 24.83 21.4891 24.0233 21.4891 23.13C21.4891 22.2367 21.7124 21.4267 22.1591 20.7C22.6057 19.9667 23.1991 19.3867 23.9391 18.96C24.6857 18.5267 25.5057 18.31 26.3991 18.31ZM26.3991 20.03C25.8257 20.03 25.3024 20.17 24.8291 20.45C24.3624 20.7233 23.9891 21.0967 23.7091 21.57C23.4291 22.0367 23.2891 22.5567 23.2891 23.13C23.2891 23.7033 23.4257 24.2267 23.6991 24.7C23.9791 25.1667 24.3524 25.54 24.8191 25.82C25.2924 26.1 25.8157 26.24 26.3891 26.24C26.9624 26.24 27.4857 26.1 27.9591 25.82C28.4324 25.54 28.8057 25.1667 29.0791 24.7C29.3591 24.2267 29.4991 23.7033 29.4991 23.13C29.4991 22.5633 29.3591 22.0467 29.0791 21.58C28.8057 21.1067 28.4324 20.73 27.9591 20.45C27.4924 20.17 26.9724 20.03 26.3991 20.03Z" fill="var(--clr-accent-500)"/>
</g>
<defs>
<clipPath id="clip0_348_1706">
<rect width="52" height="52" fill="white" transform="translate(0.5)"/>
</clipPath>
</defs>
</svg>
