<svg width="53" height="52" viewBox="0 0 53 52" fill="none" xmlns="http://www.w3.org/2000/svg">
<g clip-path="url(#clip0_348_1585)">
<path fill-rule="evenodd" clip-rule="evenodd" d="M26.3636 0.270874C20.8372 0.270874 16.5075 0.270874 13.128 0.725622C9.67191 1.18994 6.94342 2.16167 4.80132 4.30138C2.65921 6.44348 1.68988 9.17197 1.22556 12.6304C0.770813 16.0076 0.770813 20.3372 0.770813 25.8636V26.1365C0.770813 31.6628 0.770813 35.9925 1.22556 39.372C1.68988 42.8281 2.66161 45.5566 4.80132 47.6987C6.94342 49.8408 9.67191 50.8101 13.1304 51.2745C16.5075 51.7292 20.8372 51.7292 26.3636 51.7292H26.6364C32.1628 51.7292 36.4925 51.7292 39.872 51.2745C43.328 50.8101 46.0565 49.8384 48.1986 47.6987C50.3407 45.5566 51.3101 42.8281 51.7744 39.3696C52.2291 35.9925 52.2291 31.6628 52.2291 26.1365V25.8636C52.2291 20.3372 52.2291 16.0076 51.7744 12.6281C51.3101 9.17197 50.3384 6.44348 48.1986 4.30138C46.0565 2.15928 43.328 1.18994 39.8696 0.725622C36.4925 0.270874 32.1628 0.270874 26.6364 0.270874H26.3636ZM7.34073 6.84079C8.70497 5.47654 10.5479 4.6939 13.6091 4.28223C16.7205 3.86578 20.8084 3.86099 26.5 3.86099C32.1915 3.86099 36.2795 3.86578 39.3909 4.28223C42.4521 4.6939 44.2974 5.47894 45.6616 6.84079C47.0235 8.20503 47.8061 10.048 48.2178 13.1091C48.6342 16.2206 48.639 20.3085 48.639 26C48.639 31.6916 48.6342 35.7795 48.2178 38.8909C47.8061 41.9521 47.0211 43.7974 45.6592 45.1617C44.295 46.5235 42.4521 47.3062 39.3909 47.7178C36.2795 48.1343 32.1915 48.1391 26.5 48.1391C20.8084 48.1391 16.7205 48.1343 13.6091 47.7178C10.5479 47.3062 8.70258 46.5211 7.33833 45.1593C5.97648 43.795 5.19384 41.9521 4.78217 38.8909C4.36572 35.7795 4.36093 31.6916 4.36093 26C4.36093 20.3085 4.36572 16.2206 4.78217 13.1091C5.19384 10.048 5.97887 8.20503 7.34073 6.84079Z" fill="var(--clr-accent-500)"/>
<path d="M26.3475 33V20.57L23.6375 22.21V20.22L26.3475 18.6H28.1575V33H26.3475Z" fill="var(--clr-accent-500)"/>
</g>
<defs>
<clipPath id="clip0_348_1585">
<rect width="52" height="52" fill="white" transform="translate(0.5)"/>
</clipPath>
</defs>
</svg>
